<svg xmlns="http://www.w3.org/2000/svg" viewBox="0 0 193.7 183.76" fill="#ffffff">
  <path d="m25.43,113.71h-14.93v29.11h15.01c6.95,0,11.02-3.04,11.02-8.03v-.08c0-3.95-2.25-5.95-5.78-7.11,2.58-1.12,4.49-3.12,4.49-6.49v-.08c0-2-.71-3.53-1.87-4.7-1.71-1.7-4.28-2.62-7.94-2.62Zm-7.07,6.49h5.24c2.41,0,3.66.92,3.66,2.5v.08c0,1.7-1.37,2.54-3.83,2.54h-5.07v-5.12Zm10.11,13.47c0,1.71-1.41,2.66-3.87,2.66h-6.24v-5.37h6.16c2.7,0,3.95,1.04,3.95,2.62v.08Z"/>
  <path d="m48.48,137.62h11.23l2.12,5.2h8.65l-12.39-29.32h-7.78l-12.39,29.32h8.48l2.08-5.2Zm5.66-14.55l3.24,8.28h-6.53l3.29-8.28Z"/>
  <path d="m85.7,120.48c2.79,0,4.7,1.33,6.36,3.41l6.07-4.7c-2.58-3.58-6.4-6.07-12.35-6.07-8.82,0-15.35,6.65-15.35,15.14v.08c0,8.69,6.7,15.05,15.01,15.05,6.45,0,10.15-2.79,12.89-6.57l-6.07-4.32c-1.75,2.12-3.53,3.53-6.57,3.53-4.08,0-6.95-3.41-6.95-7.78v-.08c0-4.24,2.87-7.69,6.95-7.69Z"/>
  <polygon points="101.8 113.71 101.8 142.82 109.86 142.82 109.86 135.29 112.82 132 120.14 142.82 129.83 142.82 118.43 126.22 129.45 113.71 119.89 113.71 109.86 125.52 109.86 113.71 101.8 113.71"/>
  <path d="m36.33,164.09v-.08c0-2.87-.87-5.12-2.58-6.78-1.95-2-5.03-3.16-9.48-3.16h-13.77v29.11h8.07v-8.82h3.53l5.86,8.82h9.32l-6.95-10.15c3.62-1.54,5.99-4.49,5.99-8.94Zm-8.11.5c0,2.12-1.58,3.45-4.33,3.45h-5.32v-6.99h5.28c2.7,0,4.37,1.16,4.37,3.45v.08Z"/>
  <path d="m55.13,153.49c-8.98,0-15.72,6.78-15.72,15.14v.08c0,8.36,6.65,15.05,15.64,15.05s15.72-6.78,15.72-15.14v-.08c0-8.36-6.65-15.05-15.64-15.05Zm7.4,15.22c0,4.2-2.95,7.78-7.4,7.78s-7.44-3.66-7.44-7.86v-.08c0-4.2,2.95-7.78,7.36-7.78s7.49,3.66,7.49,7.86v.08Z"/>
  <path d="m89.69,153.49c-8.98,0-15.72,6.78-15.72,15.14v.08c0,8.36,6.65,15.05,15.64,15.05s15.72-6.78,15.72-15.14v-.08c0-8.36-6.65-15.05-15.64-15.05Zm7.4,15.22c0,4.2-2.95,7.78-7.4,7.78s-7.44-3.66-7.44-7.86v-.08c0-4.2,2.95-7.78,7.36-7.78s7.48,3.66,7.48,7.86v.08Z"/>
  <polygon points="125 165.34 118.06 154.07 109.53 154.07 109.53 183.18 117.43 183.18 117.43 166.55 124.84 177.86 125 177.86 132.45 166.46 132.45 183.18 140.47 183.18 140.47 154.07 131.95 154.07 125 165.34"/>
  <polygon points="34.5 73.92 34.5 103.03 42.57 103.03 42.57 91.97 52.92 91.97 52.92 103.03 60.99 103.03 60.99 73.92 52.92 73.92 52.92 84.82 42.57 84.82 42.57 73.92 34.5 73.92"/>
  <polygon points="89.56 80.78 89.56 73.92 66.15 73.92 66.15 103.03 89.77 103.03 89.77 96.17 74.13 96.17 74.13 91.55 88.11 91.55 88.11 85.19 74.13 85.19 74.13 80.78 89.56 80.78"/>
  <polygon points="18.61 103.03 18.61 92.53 29.11 92.53 29.11 84.42 18.61 84.42 18.61 73.92 10.5 73.92 10.5 84.42 0 84.42 0 92.53 10.5 92.53 10.5 103.03 18.61 103.03"/>
  <polygon points="10.5 0 10.5 64.73 18.57 64.73 18.57 8.08 185.63 8.08 185.63 175.1 149.8 175.1 149.8 183.18 193.7 183.18 193.7 0 10.5 0"/>
</svg>
